<svg height="480pt" viewBox="0 -8 480 480" width="480pt" xmlns="http://www.w3.org/2000/svg"><path d="m440 136h-200l-104-104h-96c-8.824219.027344-15.972656 7.175781-16 16v80h112l104 104h216v-80c-.027344-8.824219-7.175781-15.972656-16-16zm0 0" fill="#ff9811"/><path d="m456 232v216c-.027344 8.824219-7.175781 15.972656-16 16h-400c-8.824219-.027344-15.972656-7.175781-16-16v-320h112l104 104zm0 0" fill="#ffde55"/><path d="m224.878906 216.878906c-.570312 2.332032-.867187 4.722656-.878906 7.121094v33.601562c-5.503906 1.121094-10.867188 2.839844-16 5.117188v-38.71875c.019531-6.523438 2.03125-12.886719 5.761719-18.238281zm0 0" fill="#ffde55"/><path d="m392 0h-304c-8.824219.0273438-15.972656 7.175781-16 16v112h64l104 104h168v-216c-.027344-8.824219-7.175781-15.9726562-16-16zm0 0" fill="#96c8ef"/><path d="m456 320h-16c-8.808594.066406-15.933594 7.191406-16 16 .027344 8.824219 7.175781 15.972656 16 16h16c8.808594-.066406 15.933594-7.191406 16-16-.027344-8.824219-7.175781-15.972656-16-16zm0 0" fill="#e6e7e8"/><path d="m376 320c8.824219.027344 15.972656 7.175781 16 16-.066406 8.808594-7.191406 15.933594-16 16h-16c-8.824219-.027344-15.972656-7.175781-16-16 .066406-8.808594 7.191406-15.933594 16-16zm0 0" fill="#e6e7e8"/><path d="m408 336c-.066406 8.808594-7.191406 15.933594-16 16h-16c8.808594-.066406 15.933594-7.191406 16-16-.027344-8.824219-7.175781-15.972656-16-16h16c8.824219.027344 15.972656 7.175781 16 16zm0 0" fill="#ffd422"/><path d="m360 0v80l-24-32-24 32v-80zm0 0" fill="#ff5023"/><path d="m336 48 8 10.640625-16 21.359375v-21.359375zm0 0" fill="#78b9eb"/><path d="m376 0v80l-16-21.359375v-58.640625zm0 0" fill="#78b9eb"/><path d="m240 160c-16.976562 0-33.261719 6.730469-45.28125 18.71875-1.355469 1.316406-2.613281 2.734375-3.757812 4.242188-9.683594 11.480468-14.984376 26.019531-14.960938 41.039062v64.078125c8.257812-11.109375 19.292969-19.855469 32-25.359375v-38.71875c0-17.671875 14.328125-32 32-32s32 14.328125 32 32v38.71875c12.707031 5.503906 23.742188 14.25 32 25.359375v-64.078125c0-35.347656-28.652344-64-64-64zm0 0" fill="#d8d7da"/><path d="m320 224c0-35.347656-28.652344-64-64-64-2.675781-.003906-5.34375.160156-8 .480469 32.007812 4.03125 56.011719 31.257812 56 63.519531v8h16zm0 0" fill="#78b9eb"/><path d="m247.921875 193.039062c-7.375 1.949219-13.808594 6.460938-18.160156 12.722657-2.347657 3.34375-4.007813 7.125-4.882813 11.117187l-11.117187-11.117187c5.949219-8.625 15.761719-13.769531 26.238281-13.761719 2.675781-.019531 5.339844.332031 7.921875 1.039062zm0 0" fill="#78b9eb"/><path d="m224.878906 216.878906c-.570312 2.332032-.867187 4.722656-.878906 7.121094v33.601562c-5.503906 1.121094-10.867188 2.839844-16 5.117188v-38.71875c.019531-6.523438 2.03125-12.886719 5.761719-18.238281zm0 0" fill="#ffd422"/><path d="m272 257.601562c-5.269531-1.058593-10.628906-1.597656-16-1.601562-2.675781-.003906-5.34375.160156-8 .480469 8.28125.777343 16.386719 2.882812 24 6.238281zm0 0" fill="#ffd422"/><path d="m320 288.078125v-56.078125h-16v56.078125c10.421875 13.800781 16.039062 30.628906 16 47.921875.007812 41.03125-31.023438 75.414062-71.839844 79.601562 2.558594.238282 5.199219.398438 7.839844.398438 44.183594 0 80-35.816406 80-80 .039062-17.292969-5.578125-34.121094-16-47.921875zm0 0" fill="#ffd422"/><path d="m120 320c8.824219.027344 15.972656 7.175781 16 16-.066406 8.808594-7.191406 15.933594-16 16h-16c-8.824219-.027344-15.972656-7.175781-16-16 .066406-8.808594 7.191406-15.933594 16-16zm0 0" fill="#e6e7e8"/><path d="m152 336c-.066406 8.808594-7.191406 15.933594-16 16h-16c8.808594-.066406 15.933594-7.191406 16-16-.027344-8.824219-7.175781-15.972656-16-16h16c8.824219.027344 15.972656 7.175781 16 16zm0 0" fill="#ffd422"/><path d="m40 320h-16c-8.808594.066406-15.933594 7.191406-16 16 .027344 8.824219 7.175781 15.972656 16 16h16c8.808594-.066406 15.933594-7.191406 16-16-.027344-8.824219-7.175781-15.972656-16-16zm0 0" fill="#e6e7e8"/><path d="m72 336c-.066406 8.808594-7.191406 15.933594-16 16h-16c8.808594-.066406 15.933594-7.191406 16-16-.027344-8.824219-7.175781-15.972656-16-16h16c8.824219.027344 15.972656 7.175781 16 16zm0 0" fill="#ffd422"/><path d="m408 136h16v96h-16zm0 0" fill="#ee8700"/><g fill="#5aaae7"><path d="m112 40h48v16h-48zm0 0"/><path d="m176 40h64v16h-64zm0 0"/><path d="m112 72h128v16h-128zm0 0"/><path d="m176 120h144v16h-144zm0 0"/><path d="m320 152h48v16h-48zm0 0"/><path d="m336 120h32v16h-32zm0 0"/><path d="m320 184h48v16h-48zm0 0"/></g><path d="m120 312h-16c-10.132812.042969-19.148438 6.445312-22.527344 16h-18.945312c-3.378906-9.554688-12.394532-15.957031-22.527344-16h-16c-13.253906 0-24 10.746094-24 24s10.746094 24 24 24h16c10.132812-.042969 19.148438-6.445312 22.527344-16h18.945312c3.378906 9.554688 12.394532 15.957031 22.527344 16h16c10.132812-.042969 19.148438-6.445312 22.527344-16h25.472656v-16h-25.472656c-3.378906-9.554688-12.394532-15.957031-22.527344-16zm-80 32h-16c-4.417969 0-8-3.582031-8-8s3.582031-8 8-8h16c4.417969 0 8 3.582031 8 8s-3.582031 8-8 8zm80 0h-16c-4.417969 0-8-3.582031-8-8s3.582031-8 8-8h16c4.417969 0 8 3.582031 8 8s-3.582031 8-8 8zm0 0" fill="#ee8700"/><path d="m456 312h-16c-10.132812.042969-19.148438 6.445312-22.527344 16h-18.945312c-3.378906-9.554688-12.394532-15.957031-22.527344-16h-16c-10.132812.042969-19.148438 6.445312-22.527344 16h-25.472656v16h25.472656c3.378906 9.554688 12.394532 15.957031 22.527344 16h16c10.132812-.042969 19.148438-6.445312 22.527344-16h18.945312c3.378906 9.554688 12.394532 15.957031 22.527344 16h16c13.253906 0 24-10.746094 24-24s-10.746094-24-24-24zm-80 32h-16c-4.417969 0-8-3.582031-8-8s3.582031-8 8-8h16c4.417969 0 8 3.582031 8 8s-3.582031 8-8 8zm80 0h-16c-4.417969 0-8-3.582031-8-8s3.582031-8 8-8h16c4.417969 0 8 3.582031 8 8s-3.582031 8-8 8zm0 0" fill="#ee8700"/><path d="m320 336c0 44.183594-35.816406 80-80 80s-80-35.816406-80-80 35.816406-80 80-80 80 35.816406 80 80zm0 0" fill="#ff9811"/><path d="m288 336c0 26.507812-21.492188 48-48 48s-48-21.492188-48-48 21.492188-48 48-48 48 21.492188 48 48zm0 0" fill="#ff5023"/><path d="m240 392c-30.929688 0-56-25.070312-56-56s25.070312-56 56-56 56 25.070312 56 56c-.035156 30.914062-25.085938 55.964844-56 56zm0-96c-22.089844 0-40 17.910156-40 40s17.910156 40 40 40 40-17.910156 40-40c-.027344-22.082031-17.917969-39.972656-40-40zm0 0" fill="#ed1c24"/><path d="m264 312h-48v16h16v32h16v-32h16zm0 0" fill="#cd2a00"/></svg>