<svg id="Capa_1" enable-background="new 0 0 510 510" height="512" viewBox="0 0 510 510" width="512" xmlns="http://www.w3.org/2000/svg"><g><g id="XMLID_555_"><path id="XMLID_574_" d="m15 90v285l120 15 120-15 15-120-15-120c-7.5-2.5-127.5-42.5-135-45z" fill="#4e588b"/><path id="XMLID_573_" d="m495 90h-105l-135 142.5v142.5l120 15 120-15c0-15.8 0-269.2 0-285z" fill="#293e65"/><path id="XMLID_572_" d="m45 120v255l105 15 105-15 15-127.5-15-127.5c-11.7 0-198.3 0-210 0z" fill="#cdf"/><path id="XMLID_553_" d="m465 120c-11.7 0-198.3 0-210 0v255l105 15 105-15c0-7.2 0-247.8 0-255z" fill="#9bf"/><path id="XMLID_552_" d="m195 435v45l30 15 30-15 15-22.5-15-22.5-30-15z" fill="#4e588b"/><path id="XMLID_548_" d="m315 435-30-15-30 15v45l30 15 30-15c0-15 0-30 0-45z" fill="#293e65"/><path id="XMLID_546_" d="m165 480v30h90l15-15-15-15c-10.9 0-79 0-90 0z" fill="#293e65"/><path id="XMLID_545_" d="m345 480c-10.9 0-79 0-90 0v30h90c0-10.5 0-19.5 0-30z" fill="#182a4c"/><path id="XMLID_544_" d="m120 0v375h135l23-180-23-195s-118.6 0-135 0z" fill="#e6f2ff"/><path id="XMLID_542_" d="m390 0c-16.3 0-118.6 0-135 0v375h135c0-10.6 0-364.4 0-375z" fill="#cdf"/><path id="XMLID_539_" d="m15 375v60h240l15-30-15-30c-6.8 0-233.2 0-240 0z" fill="#293e65"/><path id="XMLID_535_" d="m495 375c-6.8 0-233.2 0-240 0v60h240c0-7.3 0-52.7 0-60z" fill="#182a4c"/><path id="XMLID_533_" d="m240 75v30h15l15-15-15-15c-5.2 0-9.8 0-15 0z" fill="#7ed8f6"/><path id="XMLID_532_" d="m330 75c-20.2 0-63.2 0-75 0v30h75c0-10.5 0-19.5 0-30z" fill="#6aa9ff"/><path id="XMLID_531_" d="m240 135v30h15l15-15-15-15c-5.2 0-9.8 0-15 0z" fill="#7ed8f6"/><path id="XMLID_530_" d="m330 135c-20.2 0-63.2 0-75 0v30h75c0-10.5 0-19.5 0-30z" fill="#6aa9ff"/><path id="XMLID_529_" d="m240 195v30h15l15-15-15-15c-5.2 0-9.8 0-15 0z" fill="#7ed8f6"/><path id="XMLID_528_" d="m330 195c-20.2 0-63.2 0-75 0v30h75c0-10.5 0-19.5 0-30z" fill="#6aa9ff"/><path id="XMLID_527_" d="m240 255v30h15l15-15-15-15c-5.2 0-9.8 0-15 0z" fill="#7ed8f6"/><path id="XMLID_472_" d="m330 255c-20.2 0-63.2 0-75 0v30h75c0-10.5 0-19.5 0-30z" fill="#6aa9ff"/></g><path d="m180 75h30v30h-30z" fill="#fd676a"/><path d="m180 135h30v30h-30z" fill="#8ee26b"/><path d="m180 255h30v30h-30z" fill="#fd676a"/><path d="m180 195h30v30h-30z" fill="#fee05b"/></g></svg>